# xmcd CD database file
#
# Track frame offsets:
#	150
#	8210
#	31690
#	61645
#	84275
#	120350
#	149265
#	166925
#	192510
#	227320
#	256336
#	286766
#	310903
#
# Disc length: 4408 seconds
#
# Revision: 0
# Processed by: cddbd v1.4PL0 Copyright (c) Steve Scherf et al.
# Submitted via: Feurio! 1.65 - http://www.feurio.com
#
DISCID=9511360d
DTITLE=John Mayall (with Mick Taylor) - Back to the roots
DYEAR=1900
DGENRE=
TTITLE0=Intro
TTITLE1=An eye for an eye
TTITLE2=Baby what ya want me to do
TTITLE3=Messin' with the kid
TTITLE4=Don't start me talkin'
TTITLE5=Shorty George
TTITLE6=The dark side of midnight
TTITLE7=Why are you so mean to me
TTITLE8=Call it stormy monday
TTITLE9=CC Rider Jam - Room to move
TTITLE10=Time has come
TTITLE11=2 401
TTITLE12=Wake up call
EXTD=
EXTT0=
EXTT1=
EXTT2=
EXTT3=
EXTT4=
EXTT5=
EXTT6=
EXTT7=
EXTT8=
EXTT9=
EXTT10=
EXTT11=
EXTT12=
PLAYORDER=
